# xmcd
#
# Track frame offsets: 
#        150
#        27886
#        43831
#        65483
#        92400
#        112958
#        135871
#        151900
#        163399
#        191976
#        210154
#        226197
#        245523
#
# Disc length: 3718 seconds
#
# Revision: 1
# Processed by: cddbd v1.5.2PL0 Copyright (c) Steve Scherf et al.
# Submitted via: ExactAudioCopy v0.99pb5
#
DISCID=a30e840d
DTITLE=Blues Attitude - Show Time Groove
DYEAR=2002
DGENRE=Blues
TTITLE0=Born In Chicago
TTITLE1=Criminal Intent
TTITLE2=Is This Love
TTITLE3=Long Distance Call
TTITLE4=Lovin' Cup
TTITLE5=Blues Walked In
TTITLE6=I'm So Tired
TTITLE7=Pop's Blues
TTITLE8=That's What I Say
TTITLE9=Six Days On The Road
TTITLE10=Burger Song
TTITLE11=Slide Thang
TTITLE12=Show Time
EXTD=
EXTT0=
EXTT1=
EXTT2=
EXTT3=
EXTT4=
EXTT5=
EXTT6=
EXTT7=
EXTT8=
EXTT9=
EXTT10=
EXTT11=
EXTT12=
PLAYORDER=
